<?xml version="1.0" encoding="UTF-8" standalone="no"?>
<!-- Generator: Adobe Illustrator 19.0.0, SVG Export Plug-In . SVG Version: 6.00 Build 0)  -->

<svg
   xmlns:dc="http://purl.org/dc/elements/1.1/"
   xmlns:cc="http://creativecommons.org/ns#"
   xmlns:rdf="http://www.w3.org/1999/02/22-rdf-syntax-ns#"
   xmlns:svg="http://www.w3.org/2000/svg"
   xmlns="http://www.w3.org/2000/svg"
   xmlns:sodipodi="http://sodipodi.sourceforge.net/DTD/sodipodi-0.dtd"
   xmlns:inkscape="http://www.inkscape.org/namespaces/inkscape"
   version="1.1"
   id="Layer_1"
   x="0px"
   y="0px"
   viewBox="0 0 151.27241 151.27241"
   xml:space="preserve"
   width="258.16901"
   height="258.16901"
   sodipodi:docname="pause.svg"
   inkscape:version="0.92.2pre0 (973e216, 2017-07-25)"><metadata
     id="metadata43"><rdf:RDF><cc:Work
         rdf:about=""><dc:format>image/svg+xml</dc:format><dc:type
           rdf:resource="http://purl.org/dc/dcmitype/StillImage" /><dc:title></dc:title></cc:Work></rdf:RDF></metadata><defs
     id="defs41" /><sodipodi:namedview
     pagecolor="#ffffff"
     bordercolor="#666666"
     borderopacity="1"
     objecttolerance="10"
     gridtolerance="10"
     guidetolerance="10"
     inkscape:pageopacity="0"
     inkscape:pageshadow="2"
     inkscape:window-width="1366"
     inkscape:window-height="707"
     id="namedview39"
     showgrid="false"
     fit-margin-top="0"
     fit-margin-left="0"
     fit-margin-right="0"
     fit-margin-bottom="0"
     inkscape:zoom="0.4609375"
     inkscape:cx="255.99829"
     inkscape:cy="256"
     inkscape:window-x="0"
     inkscape:window-y="0"
     inkscape:window-maximized="1"
     inkscape:current-layer="Layer_1" /><g
     id="g6"
     transform="matrix(0.50424137,0,0,0.50423633,-5.0424137e-4,0)"><g
       id="g4"><path
         d="m 150.001,0 c -82.838,0 -150,67.159 -150,150 0,82.838 67.162,150.003 150,150.003 82.843,0 150,-67.165 150,-150.003 0,-82.841 -67.155,-150 -150,-150 z M 134.41,194.538 c 0,9.498 -7.7,17.198 -17.198,17.198 -9.498,0 -17.198,-7.7 -17.198,-17.198 V 105.46 c 0,-9.498 7.7,-17.198 17.198,-17.198 9.498,0 17.198,7.7 17.198,17.198 z m 64.545,0 c 0,9.498 -7.701,17.198 -17.198,17.198 -9.498,0 -17.198,-7.7 -17.198,-17.198 V 105.46 c 0,-9.498 7.7,-17.198 17.198,-17.198 9.498,0 17.198,7.7 17.198,17.198 z"
         id="path2"
         inkscape:connector-curvature="0"
         style="fill:#ffffff" /></g></g><g
     id="g8"
     transform="translate(-0.001,-148.73059)" /><g
     id="g10"
     transform="translate(-0.001,-148.73059)" /><g
     id="g12"
     transform="translate(-0.001,-148.73059)" /><g
     id="g14"
     transform="translate(-0.001,-148.73059)" /><g
     id="g16"
     transform="translate(-0.001,-148.73059)" /><g
     id="g18"
     transform="translate(-0.001,-148.73059)" /><g
     id="g20"
     transform="translate(-0.001,-148.73059)" /><g
     id="g22"
     transform="translate(-0.001,-148.73059)" /><g
     id="g24"
     transform="translate(-0.001,-148.73059)" /><g
     id="g26"
     transform="translate(-0.001,-148.73059)" /><g
     id="g28"
     transform="translate(-0.001,-148.73059)" /><g
     id="g30"
     transform="translate(-0.001,-148.73059)" /><g
     id="g32"
     transform="translate(-0.001,-148.73059)" /><g
     id="g34"
     transform="translate(-0.001,-148.73059)" /><g
     id="g36"
     transform="translate(-0.001,-148.73059)" /></svg>