<?xml version="1.0" encoding="UTF-8" standalone="no"?>
<!-- Generator: Adobe Illustrator 19.0.0, SVG Export Plug-In . SVG Version: 6.00 Build 0)  -->

<svg
   xmlns:dc="http://purl.org/dc/elements/1.1/"
   xmlns:cc="http://creativecommons.org/ns#"
   xmlns:rdf="http://www.w3.org/1999/02/22-rdf-syntax-ns#"
   xmlns:svg="http://www.w3.org/2000/svg"
   xmlns="http://www.w3.org/2000/svg"
   xmlns:sodipodi="http://sodipodi.sourceforge.net/DTD/sodipodi-0.dtd"
   xmlns:inkscape="http://www.inkscape.org/namespaces/inkscape"
   version="1.1"
   id="Layer_1"
   x="0px"
   y="0px"
   viewBox="0 0 151.27119 151.27119"
   xml:space="preserve"
   width="258.16949"
   height="258.16949"
   sodipodi:docname="play-button.svg"
   inkscape:version="0.92.2pre0 (973e216, 2017-07-25)"><metadata
     id="metadata43"><rdf:RDF><cc:Work
         rdf:about=""><dc:format>image/svg+xml</dc:format><dc:type
           rdf:resource="http://purl.org/dc/dcmitype/StillImage" /><dc:title></dc:title></cc:Work></rdf:RDF></metadata><defs
     id="defs41" /><sodipodi:namedview
     pagecolor="#ffffff"
     bordercolor="#666666"
     borderopacity="1"
     objecttolerance="10"
     gridtolerance="10"
     guidetolerance="10"
     inkscape:pageopacity="0"
     inkscape:pageshadow="2"
     inkscape:window-width="1366"
     inkscape:window-height="707"
     id="namedview39"
     showgrid="false"
     fit-margin-top="0"
     fit-margin-left="0"
     fit-margin-right="0"
     fit-margin-bottom="0"
     inkscape:zoom="0.4609375"
     inkscape:cx="117.25327"
     inkscape:cy="126.90789"
     inkscape:window-x="0"
     inkscape:window-y="0"
     inkscape:window-maximized="1"
     inkscape:current-layer="Layer_1" /><g
     id="g6"
     transform="scale(0.50423729)"><g
       id="g4"><path
         d="M 150,0 C 67.157,0 0,67.162 0,150 0,232.841 67.157,300 150,300 232.843,300 300,232.841 300,150 300,67.162 232.843,0 150,0 Z m 55.846,158.266 -86.557,49.971 c -1.32,0.765 -2.799,1.144 -4.272,1.144 -1.473,0 -2.949,-0.379 -4.274,-1.144 -2.64,-1.525 -4.269,-4.347 -4.269,-7.402 V 100.89 c 0,-3.053 1.631,-5.88 4.269,-7.402 2.648,-1.528 5.906,-1.528 8.551,0 l 86.557,49.974 c 2.645,1.53 4.274,4.352 4.269,7.402 0,3.052 -1.626,5.877 -4.274,7.402 z"
         id="path2"
         inkscape:connector-curvature="0"
         style="fill:#ffffff" /></g></g><g
     id="g8"
     transform="translate(-148.72881,-148.72881)" /><g
     id="g10"
     transform="translate(-148.72881,-148.72881)" /><g
     id="g12"
     transform="translate(-148.72881,-148.72881)" /><g
     id="g14"
     transform="translate(-148.72881,-148.72881)" /><g
     id="g16"
     transform="translate(-148.72881,-148.72881)" /><g
     id="g18"
     transform="translate(-148.72881,-148.72881)" /><g
     id="g20"
     transform="translate(-148.72881,-148.72881)" /><g
     id="g22"
     transform="translate(-148.72881,-148.72881)" /><g
     id="g24"
     transform="translate(-148.72881,-148.72881)" /><g
     id="g26"
     transform="translate(-148.72881,-148.72881)" /><g
     id="g28"
     transform="translate(-148.72881,-148.72881)" /><g
     id="g30"
     transform="translate(-148.72881,-148.72881)" /><g
     id="g32"
     transform="translate(-148.72881,-148.72881)" /><g
     id="g34"
     transform="translate(-148.72881,-148.72881)" /><g
     id="g36"
     transform="translate(-148.72881,-148.72881)" /></svg>